G04 #@! TF.GenerationSoftware,KiCad,Pcbnew,5.0.1*
G04 #@! TF.CreationDate,2019-01-22T15:02:09+05:30*
G04 #@! TF.ProjectId,traffic,747261666669632E6B696361645F7063,rev?*
G04 #@! TF.SameCoordinates,Original*
G04 #@! TF.FileFunction,Copper,L2,Bot,Signal*
G04 #@! TF.FilePolarity,Positive*
%FSLAX46Y46*%
G04 Gerber Fmt 4.6, Leading zero omitted, Abs format (unit mm)*
G04 Created by KiCad (PCBNEW 5.0.1) date Tue 22 Jan 2019 03:02:09 PM IST*
%MOMM*%
%LPD*%
G01*
G04 APERTURE LIST*
G04 #@! TA.AperFunction,ComponentPad*
%ADD10C,1.700000*%
G04 #@! TD*
G04 #@! TA.AperFunction,Conductor*
%ADD11C,1.700000*%
G04 #@! TD*
G04 #@! TA.AperFunction,Conductor*
%ADD12C,0.100000*%
G04 #@! TD*
G04 #@! TA.AperFunction,ComponentPad*
%ADD13C,1.800000*%
G04 #@! TD*
G04 #@! TA.AperFunction,ComponentPad*
%ADD14R,1.800000X1.800000*%
G04 #@! TD*
G04 #@! TA.AperFunction,ComponentPad*
%ADD15O,1.700000X1.700000*%
G04 #@! TD*
G04 #@! TA.AperFunction,ComponentPad*
%ADD16R,1.700000X1.700000*%
G04 #@! TD*
G04 #@! TA.AperFunction,SMDPad,CuDef*
%ADD17C,0.900000*%
G04 #@! TD*
G04 #@! TA.AperFunction,Conductor*
%ADD18C,0.250000*%
G04 #@! TD*
G04 APERTURE END LIST*
D10*
G04 #@! TO.P,J2,2*
G04 #@! TO.N,+5C*
X153397949Y-86595949D03*
D11*
G04 #@! TD*
G04 #@! TO.N,+5C*
G04 #@! TO.C,J2*
X153397949Y-86595949D02*
X153397949Y-86595949D01*
D10*
G04 #@! TO.P,J2,1*
G04 #@! TO.N,Net-(D5-Pad1)*
X155194000Y-88392000D03*
D12*
G04 #@! TD*
G04 #@! TO.N,Net-(D5-Pad1)*
G04 #@! TO.C,J2*
G36*
X155194000Y-87189918D02*
X156396082Y-88392000D01*
X155194000Y-89594082D01*
X153991918Y-88392000D01*
X155194000Y-87189918D01*
X155194000Y-87189918D01*
G37*
D13*
G04 #@! TO.P,D5,2*
G04 #@! TO.N,Net-(D1-Pad2)*
X147320000Y-86106000D03*
D14*
G04 #@! TO.P,D5,1*
G04 #@! TO.N,Net-(D5-Pad1)*
X147320000Y-88646000D03*
G04 #@! TD*
G04 #@! TO.P,D4,1*
G04 #@! TO.N,Net-(D4-Pad1)*
X147320000Y-94996000D03*
D13*
G04 #@! TO.P,D4,2*
G04 #@! TO.N,Net-(D1-Pad2)*
X147320000Y-92456000D03*
G04 #@! TD*
G04 #@! TO.P,D3,2*
G04 #@! TO.N,Net-(D1-Pad2)*
X154900000Y-98860000D03*
D14*
G04 #@! TO.P,D3,1*
G04 #@! TO.N,Net-(D3-Pad1)*
X154900000Y-101400000D03*
G04 #@! TD*
G04 #@! TO.P,D2,1*
G04 #@! TO.N,Net-(D2-Pad1)*
X147320000Y-101346000D03*
D13*
G04 #@! TO.P,D2,2*
G04 #@! TO.N,Net-(D1-Pad2)*
X147320000Y-98806000D03*
G04 #@! TD*
G04 #@! TO.P,D1,2*
G04 #@! TO.N,Net-(D1-Pad2)*
X138900000Y-98760000D03*
D14*
G04 #@! TO.P,D1,1*
G04 #@! TO.N,Net-(D1-Pad1)*
X138900000Y-101300000D03*
G04 #@! TD*
D15*
G04 #@! TO.P,J1,6*
G04 #@! TO.N,Net-(D3-Pad1)*
X153416000Y-105664000D03*
G04 #@! TO.P,J1,5*
G04 #@! TO.N,Net-(D5-Pad1)*
X150876000Y-105664000D03*
G04 #@! TO.P,J1,4*
G04 #@! TO.N,Net-(D4-Pad1)*
X148336000Y-105664000D03*
G04 #@! TO.P,J1,3*
G04 #@! TO.N,Net-(D2-Pad1)*
X145796000Y-105664000D03*
G04 #@! TO.P,J1,2*
G04 #@! TO.N,Net-(D1-Pad1)*
X143256000Y-105664000D03*
D16*
G04 #@! TO.P,J1,1*
G04 #@! TO.N,+5C*
X140716000Y-105664000D03*
G04 #@! TD*
D17*
G04 #@! TO.P,R1,2*
G04 #@! TO.N,+5C*
X139668366Y-92233634D03*
D12*
G04 #@! TD*
G04 #@! TO.N,+5C*
G04 #@! TO.C,R1*
G36*
X139774432Y-91491172D02*
X140410828Y-92127568D01*
X139562300Y-92976096D01*
X138925904Y-92339700D01*
X139774432Y-91491172D01*
X139774432Y-91491172D01*
G37*
D17*
G04 #@! TO.P,R1,1*
G04 #@! TO.N,Net-(D1-Pad2)*
X141224000Y-90678000D03*
D12*
G04 #@! TD*
G04 #@! TO.N,Net-(D1-Pad2)*
G04 #@! TO.C,R1*
G36*
X141330066Y-89935538D02*
X141966462Y-90571934D01*
X141117934Y-91420462D01*
X140481538Y-90784066D01*
X141330066Y-89935538D01*
X141330066Y-89935538D01*
G37*
D18*
G04 #@! TO.N,Net-(D1-Pad2)*
X147320000Y-86106000D02*
X145288000Y-88138000D01*
X145288000Y-90424000D02*
X147320000Y-92456000D01*
X147320000Y-92456000D02*
X146047208Y-92456000D01*
X146047208Y-92456000D02*
X145288000Y-93215208D01*
X145796000Y-98554792D02*
X145796000Y-98552000D01*
X146047208Y-98806000D02*
X145796000Y-98554792D01*
X147320000Y-98806000D02*
X146047208Y-98806000D01*
X145288000Y-98044000D02*
X145796000Y-98552000D01*
X145288000Y-93215208D02*
X145288000Y-95504000D01*
X145288000Y-95504000D02*
X145288000Y-98044000D01*
X143002000Y-88900000D02*
X145288000Y-88900000D01*
X141224000Y-90678000D02*
X143002000Y-88900000D01*
X145288000Y-88138000D02*
X145288000Y-88900000D01*
X145288000Y-88900000D02*
X145288000Y-90424000D01*
X139799999Y-97860001D02*
X139799999Y-97300001D01*
X138900000Y-98760000D02*
X139799999Y-97860001D01*
X141596000Y-95504000D02*
X145288000Y-95504000D01*
X139799999Y-97300001D02*
X141596000Y-95504000D01*
X148219999Y-87005999D02*
X150251999Y-87005999D01*
X147320000Y-86106000D02*
X148219999Y-87005999D01*
X150251999Y-87005999D02*
X151892000Y-88646000D01*
X153086900Y-88646000D02*
X155118900Y-86614000D01*
X151892000Y-88646000D02*
X153086900Y-88646000D01*
X155118900Y-86614000D02*
X155702000Y-86614000D01*
X155702000Y-86614000D02*
X157734000Y-88646000D01*
X157734000Y-88646000D02*
X157734000Y-90932000D01*
X154900000Y-93766000D02*
X154900000Y-94488000D01*
X157734000Y-90932000D02*
X154900000Y-93766000D01*
X154900000Y-94488000D02*
X154900000Y-98860000D01*
G04 #@! TO.N,Net-(D1-Pad1)*
X143256000Y-104506000D02*
X143256000Y-105664000D01*
X140050000Y-101300000D02*
X143256000Y-104506000D01*
X138900000Y-101300000D02*
X140050000Y-101300000D01*
G04 #@! TO.N,Net-(D2-Pad1)*
X145796000Y-101720000D02*
X145796000Y-104461919D01*
X146170000Y-101346000D02*
X145796000Y-101720000D01*
X147320000Y-101346000D02*
X146170000Y-101346000D01*
X145796000Y-104461919D02*
X145796000Y-105664000D01*
G04 #@! TO.N,Net-(D3-Pad1)*
X154900000Y-104180000D02*
X153416000Y-105664000D01*
X154900000Y-101400000D02*
X154900000Y-104180000D01*
G04 #@! TO.N,Net-(D4-Pad1)*
X148470000Y-94996000D02*
X150368000Y-96894000D01*
X147320000Y-94996000D02*
X148470000Y-94996000D01*
X150368000Y-96894000D02*
X150368000Y-101600000D01*
X150368000Y-101600000D02*
X148336000Y-103632000D01*
X148336000Y-103632000D02*
X148336000Y-105664000D01*
G04 #@! TO.N,Net-(D5-Pad1)*
X150114000Y-88646000D02*
X147320000Y-88646000D01*
X151725999Y-90257999D02*
X150114000Y-88646000D01*
X151725999Y-104814001D02*
X151725999Y-90257999D01*
X150876000Y-105664000D02*
X151725999Y-104814001D01*
X153328001Y-90257999D02*
X155194000Y-88392000D01*
X151725999Y-90257999D02*
X153328001Y-90257999D01*
G04 #@! TO.N,+5C*
X136652000Y-103378000D02*
X138938000Y-105664000D01*
X138938000Y-105664000D02*
X140716000Y-105664000D01*
X139668366Y-92233634D02*
X136652000Y-95250000D01*
X136652000Y-95250000D02*
X136652000Y-103378000D01*
X151130000Y-84328000D02*
X153397949Y-86595949D01*
X144018000Y-84328000D02*
X151130000Y-84328000D01*
X139192000Y-89154000D02*
X144018000Y-84328000D01*
X139668366Y-92233634D02*
X139192000Y-91757268D01*
X139192000Y-91757268D02*
X139192000Y-89154000D01*
G04 #@! TD*
M02*
