G04 #@! TF.GenerationSoftware,KiCad,Pcbnew,5.0.1*
G04 #@! TF.CreationDate,2019-01-22T15:02:09+05:30*
G04 #@! TF.ProjectId,traffic,747261666669632E6B696361645F7063,rev?*
G04 #@! TF.SameCoordinates,Original*
G04 #@! TF.FileFunction,Legend,Top*
G04 #@! TF.FilePolarity,Positive*
%FSLAX46Y46*%
G04 Gerber Fmt 4.6, Leading zero omitted, Abs format (unit mm)*
G04 Created by KiCad (PCBNEW 5.0.1) date Tue 22 Jan 2019 03:02:09 PM IST*
%MOMM*%
%LPD*%
G01*
G04 APERTURE LIST*
%ADD10C,0.100000*%
%ADD11C,0.200000*%
%ADD12C,0.300000*%
%ADD13C,0.150000*%
%ADD14C,0.120000*%
G04 APERTURE END LIST*
D10*
X153818155Y-90883841D02*
X153845093Y-90964653D01*
X153925905Y-91045465D01*
X154033654Y-91099340D01*
X154141404Y-91099340D01*
X154222216Y-91072402D01*
X154356903Y-90991590D01*
X154437715Y-90910778D01*
X154518528Y-90776091D01*
X154545465Y-90695279D01*
X154545465Y-90587529D01*
X154491590Y-90479780D01*
X154437715Y-90425905D01*
X154329966Y-90372030D01*
X154276091Y-90372030D01*
X154087529Y-90560592D01*
X154195279Y-90668341D01*
X154087529Y-90075719D02*
X153521844Y-90641404D01*
X153764280Y-89752470D01*
X153198595Y-90318155D01*
X153494906Y-89483096D02*
X152929221Y-90048781D01*
X152794534Y-89914094D01*
X152740659Y-89806345D01*
X152740659Y-89698595D01*
X152767597Y-89617783D01*
X152848409Y-89483096D01*
X152929221Y-89402284D01*
X153063908Y-89321471D01*
X153144720Y-89294534D01*
X153252470Y-89294534D01*
X153360219Y-89348409D01*
X153494906Y-89483096D01*
X152659715Y-89078903D02*
X152228717Y-88647905D01*
X152659715Y-88647905D02*
X152228717Y-89078903D01*
X151339783Y-88459343D02*
X151609157Y-88728717D01*
X151905468Y-88486280D01*
X151851593Y-88486280D01*
X151770781Y-88459343D01*
X151636094Y-88324656D01*
X151609157Y-88243844D01*
X151609157Y-88189969D01*
X151636094Y-88109157D01*
X151770781Y-87974470D01*
X151851593Y-87947532D01*
X151905468Y-87947532D01*
X151986280Y-87974470D01*
X152120967Y-88109157D01*
X152147905Y-88189969D01*
X152147905Y-88243844D01*
X151151221Y-88270781D02*
X151528345Y-87516534D01*
X150774097Y-87893658D01*
D11*
X137628214Y-92218740D02*
X137897588Y-91949366D01*
X137493527Y-91882022D02*
X138099618Y-92488114D01*
X138200633Y-92521785D01*
X138301649Y-92488114D01*
X138368992Y-92420770D01*
X138604694Y-92185068D02*
X138133290Y-91713663D01*
X138267977Y-91848350D02*
X138234305Y-91747335D01*
X138234305Y-91679992D01*
X138267977Y-91578976D01*
X138335320Y-91511633D01*
X139345473Y-91444289D02*
X138975084Y-91073900D01*
X138874068Y-91040228D01*
X138773053Y-91073900D01*
X138638366Y-91208587D01*
X138604694Y-91309602D01*
X139311801Y-91410618D02*
X139278129Y-91511633D01*
X139109771Y-91679992D01*
X139008755Y-91713663D01*
X138907740Y-91679992D01*
X138840397Y-91612648D01*
X138806725Y-91511633D01*
X138840397Y-91410618D01*
X139008755Y-91242259D01*
X139042427Y-91141244D01*
X139109771Y-90737183D02*
X139379145Y-90467809D01*
X139682190Y-91107572D02*
X139076099Y-90501480D01*
X139042427Y-90400465D01*
X139076099Y-90299450D01*
X139143442Y-90232106D01*
X139513832Y-90333122D02*
X139783206Y-90063748D01*
X140086251Y-90703511D02*
X139480160Y-90097419D01*
X139446488Y-89996404D01*
X139480160Y-89895389D01*
X139547503Y-89828045D01*
X140490312Y-90299450D02*
X140018908Y-89828045D01*
X139783206Y-89592343D02*
X139783206Y-89659687D01*
X139850549Y-89659687D01*
X139850549Y-89592343D01*
X139783206Y-89592343D01*
X139850549Y-89659687D01*
X141096404Y-89626015D02*
X141062732Y-89727030D01*
X140928045Y-89861717D01*
X140827030Y-89895389D01*
X140759687Y-89895389D01*
X140658671Y-89861717D01*
X140456641Y-89659687D01*
X140422969Y-89558671D01*
X140422969Y-89491328D01*
X140456641Y-89390312D01*
X140591328Y-89255625D01*
X140692343Y-89221954D01*
X141769839Y-89019923D02*
X141433122Y-89356641D01*
X140726015Y-88649534D01*
X142005541Y-88784221D02*
X141534137Y-88312816D01*
X141298435Y-88077114D02*
X141298435Y-88144458D01*
X141365778Y-88144458D01*
X141365778Y-88077114D01*
X141298435Y-88077114D01*
X141365778Y-88144458D01*
X142173900Y-87673053D02*
X142746320Y-88245473D01*
X142779992Y-88346488D01*
X142779992Y-88413832D01*
X142746320Y-88514847D01*
X142645305Y-88615862D01*
X142544289Y-88649534D01*
X142611633Y-88110786D02*
X142577961Y-88211801D01*
X142443274Y-88346488D01*
X142342259Y-88380160D01*
X142274915Y-88380160D01*
X142173900Y-88346488D01*
X141971870Y-88144458D01*
X141938198Y-88043442D01*
X141938198Y-87976099D01*
X141971870Y-87875084D01*
X142106557Y-87740397D01*
X142207572Y-87706725D01*
X142982022Y-87807740D02*
X142274915Y-87100633D01*
X143285068Y-87504694D02*
X142914679Y-87134305D01*
X142813663Y-87100633D01*
X142712648Y-87134305D01*
X142611633Y-87235320D01*
X142577961Y-87336336D01*
X142577961Y-87403679D01*
X143049366Y-86797588D02*
X143318740Y-86528214D01*
X142914679Y-86460870D02*
X143520770Y-87066962D01*
X143621785Y-87100633D01*
X143722801Y-87066962D01*
X143790144Y-86999618D01*
D12*
X136923819Y-90396536D02*
X136570265Y-90750089D01*
X137125849Y-91305673D02*
X136065189Y-90245013D01*
X136570265Y-89739936D01*
X137176357Y-89133845D02*
X137378387Y-88931814D01*
X137529910Y-88881307D01*
X137731941Y-88881307D01*
X137984479Y-89032830D01*
X138338032Y-89386383D01*
X138489555Y-89638921D01*
X138489555Y-89840952D01*
X138439047Y-89992475D01*
X138237017Y-90194505D01*
X138085494Y-90245013D01*
X137883463Y-90245013D01*
X137630925Y-90093490D01*
X137277372Y-89739936D01*
X137125849Y-89487398D01*
X137125849Y-89285368D01*
X137176357Y-89133845D01*
X139045139Y-89285368D02*
X139247169Y-89184352D01*
X139499708Y-88931814D01*
X139550215Y-88780291D01*
X139550215Y-88679276D01*
X139499708Y-88527753D01*
X139398692Y-88426738D01*
X139247169Y-88376230D01*
X139146154Y-88376230D01*
X138994631Y-88426738D01*
X138742093Y-88578261D01*
X138590570Y-88628769D01*
X138489555Y-88628769D01*
X138338032Y-88578261D01*
X138237017Y-88477246D01*
X138186509Y-88325723D01*
X138186509Y-88224708D01*
X138237017Y-88073185D01*
X138489555Y-87820647D01*
X138691586Y-87719631D01*
X140055291Y-88275215D02*
X140257322Y-88174200D01*
X140509860Y-87921662D01*
X140560368Y-87770139D01*
X140560368Y-87669124D01*
X140509860Y-87517601D01*
X140408845Y-87416586D01*
X140257322Y-87366078D01*
X140156307Y-87366078D01*
X140004784Y-87416586D01*
X139752246Y-87568108D01*
X139600723Y-87618616D01*
X139499708Y-87618616D01*
X139348185Y-87568108D01*
X139247169Y-87467093D01*
X139196662Y-87315570D01*
X139196662Y-87214555D01*
X139247169Y-87063032D01*
X139499708Y-86810494D01*
X139701738Y-86709479D01*
X140610875Y-86709479D02*
X140964429Y-86355925D01*
X141671536Y-86759986D02*
X141166459Y-87265063D01*
X140105799Y-86204402D01*
X140610875Y-85699326D01*
X141570520Y-85749834D02*
X141924074Y-85396280D01*
X142631180Y-85800341D02*
X142126104Y-86305418D01*
X141065444Y-85244758D01*
X141570520Y-84739681D01*
D13*
X148279761Y-108436904D02*
X148013095Y-108055952D01*
X147822619Y-108436904D02*
X147822619Y-107636904D01*
X148127380Y-107636904D01*
X148203571Y-107675000D01*
X148241666Y-107713095D01*
X148279761Y-107789285D01*
X148279761Y-107903571D01*
X148241666Y-107979761D01*
X148203571Y-108017857D01*
X148127380Y-108055952D01*
X147822619Y-108055952D01*
X148927380Y-108398809D02*
X148851190Y-108436904D01*
X148698809Y-108436904D01*
X148622619Y-108398809D01*
X148584523Y-108322619D01*
X148584523Y-108017857D01*
X148622619Y-107941666D01*
X148698809Y-107903571D01*
X148851190Y-107903571D01*
X148927380Y-107941666D01*
X148965476Y-108017857D01*
X148965476Y-108094047D01*
X148584523Y-108170238D01*
X150646428Y-108398809D02*
X150760714Y-108436904D01*
X150951190Y-108436904D01*
X151027380Y-108398809D01*
X151065476Y-108360714D01*
X151103571Y-108284523D01*
X151103571Y-108208333D01*
X151065476Y-108132142D01*
X151027380Y-108094047D01*
X150951190Y-108055952D01*
X150798809Y-108017857D01*
X150722619Y-107979761D01*
X150684523Y-107941666D01*
X150646428Y-107865476D01*
X150646428Y-107789285D01*
X150684523Y-107713095D01*
X150722619Y-107675000D01*
X150798809Y-107636904D01*
X150989285Y-107636904D01*
X151103571Y-107675000D01*
X153457142Y-108411904D02*
X153190476Y-108030952D01*
X153000000Y-108411904D02*
X153000000Y-107611904D01*
X153304761Y-107611904D01*
X153380952Y-107650000D01*
X153419047Y-107688095D01*
X153457142Y-107764285D01*
X153457142Y-107878571D01*
X153419047Y-107954761D01*
X153380952Y-107992857D01*
X153304761Y-108030952D01*
X153000000Y-108030952D01*
X153800000Y-108411904D02*
X153800000Y-107878571D01*
X153800000Y-107611904D02*
X153761904Y-107650000D01*
X153800000Y-107688095D01*
X153838095Y-107650000D01*
X153800000Y-107611904D01*
X153800000Y-107688095D01*
X145984523Y-107675000D02*
X145908333Y-107636904D01*
X145794047Y-107636904D01*
X145679761Y-107675000D01*
X145603571Y-107751190D01*
X145565476Y-107827380D01*
X145527380Y-107979761D01*
X145527380Y-108094047D01*
X145565476Y-108246428D01*
X145603571Y-108322619D01*
X145679761Y-108398809D01*
X145794047Y-108436904D01*
X145870238Y-108436904D01*
X145984523Y-108398809D01*
X146022619Y-108360714D01*
X146022619Y-108094047D01*
X145870238Y-108094047D01*
X143447619Y-108436904D02*
X143066666Y-108436904D01*
X143066666Y-107636904D01*
X139496428Y-108132142D02*
X140105952Y-108132142D01*
X139801190Y-108436904D02*
X139801190Y-107827380D01*
X140867857Y-107636904D02*
X140486904Y-107636904D01*
X140448809Y-108017857D01*
X140486904Y-107979761D01*
X140563095Y-107941666D01*
X140753571Y-107941666D01*
X140829761Y-107979761D01*
X140867857Y-108017857D01*
X140905952Y-108094047D01*
X140905952Y-108284523D01*
X140867857Y-108360714D01*
X140829761Y-108398809D01*
X140753571Y-108436904D01*
X140563095Y-108436904D01*
X140486904Y-108398809D01*
X140448809Y-108360714D01*
X141134523Y-107636904D02*
X141401190Y-108436904D01*
X141667857Y-107636904D01*
D14*
G04 #@! TO.C,J2*
X157074904Y-88392000D02*
X156134452Y-89332452D01*
X156134452Y-87451548D02*
X157074904Y-88392000D01*
X153355522Y-88434426D02*
X155236426Y-86553522D01*
X151517045Y-86595949D02*
X153355522Y-88434426D01*
X153397949Y-84715045D02*
X151517045Y-86595949D01*
X155236426Y-86553522D02*
X153397949Y-84715045D01*
G04 #@! TO.C,D5*
X145775000Y-89936000D02*
X148865000Y-89936000D01*
X149820000Y-87376000D02*
G75*
G03X149820000Y-87376000I-2500000J0D01*
G01*
X147319538Y-84386000D02*
G75*
G02X148864830Y-89936000I462J-2990000D01*
G01*
X147320462Y-84386000D02*
G75*
G03X145775170Y-89936000I-462J-2990000D01*
G01*
G04 #@! TO.C,D4*
X147320462Y-90736000D02*
G75*
G03X145775170Y-96286000I-462J-2990000D01*
G01*
X147319538Y-90736000D02*
G75*
G02X148864830Y-96286000I462J-2990000D01*
G01*
X149820000Y-93726000D02*
G75*
G03X149820000Y-93726000I-2500000J0D01*
G01*
X145775000Y-96286000D02*
X148865000Y-96286000D01*
G04 #@! TO.C,D3*
X153355000Y-102690000D02*
X156445000Y-102690000D01*
X157400000Y-100130000D02*
G75*
G03X157400000Y-100130000I-2500000J0D01*
G01*
X154899538Y-97140000D02*
G75*
G02X156444830Y-102690000I462J-2990000D01*
G01*
X154900462Y-97140000D02*
G75*
G03X153355170Y-102690000I-462J-2990000D01*
G01*
G04 #@! TO.C,D2*
X147320462Y-97086000D02*
G75*
G03X145775170Y-102636000I-462J-2990000D01*
G01*
X147319538Y-97086000D02*
G75*
G02X148864830Y-102636000I462J-2990000D01*
G01*
X149820000Y-100076000D02*
G75*
G03X149820000Y-100076000I-2500000J0D01*
G01*
X145775000Y-102636000D02*
X148865000Y-102636000D01*
G04 #@! TO.C,D1*
X137355000Y-102590000D02*
X140445000Y-102590000D01*
X141400000Y-100030000D02*
G75*
G03X141400000Y-100030000I-2500000J0D01*
G01*
X138899538Y-97040000D02*
G75*
G02X140444830Y-102590000I462J-2990000D01*
G01*
X138900462Y-97040000D02*
G75*
G03X137355170Y-102590000I-462J-2990000D01*
G01*
G04 #@! TO.C,J1*
X139386000Y-106994000D02*
X139386000Y-105664000D01*
X140716000Y-106994000D02*
X139386000Y-106994000D01*
X141986000Y-104334000D02*
X141986000Y-106994000D01*
X154746000Y-104334000D02*
X141986000Y-104334000D01*
X154746000Y-106994000D02*
X154746000Y-104334000D01*
X141986000Y-106994000D02*
X154746000Y-106994000D01*
G04 #@! TO.C,J2*
D13*
X156218631Y-89888036D02*
X156723707Y-90393112D01*
X156791051Y-90527799D01*
X156791051Y-90662486D01*
X156723707Y-90797173D01*
X156656364Y-90864516D01*
X156589020Y-89652333D02*
X156589020Y-89584990D01*
X156622692Y-89483975D01*
X156791051Y-89315616D01*
X156892066Y-89281944D01*
X156959410Y-89281944D01*
X157060425Y-89315616D01*
X157127768Y-89382959D01*
X157195112Y-89517646D01*
X157195112Y-90325768D01*
X157632845Y-89888036D01*
G04 #@! TO.C,D5*
X149185523Y-84732761D02*
X149328380Y-84780380D01*
X149566476Y-84780380D01*
X149661714Y-84732761D01*
X149709333Y-84685142D01*
X149756952Y-84589904D01*
X149756952Y-84494666D01*
X149709333Y-84399428D01*
X149661714Y-84351809D01*
X149566476Y-84304190D01*
X149376000Y-84256571D01*
X149280761Y-84208952D01*
X149233142Y-84161333D01*
X149185523Y-84066095D01*
X149185523Y-83970857D01*
X149233142Y-83875619D01*
X149280761Y-83828000D01*
X149376000Y-83780380D01*
X149614095Y-83780380D01*
X149756952Y-83828000D01*
X150042666Y-83780380D02*
X150614095Y-83780380D01*
X150328380Y-84780380D02*
X150328380Y-83780380D01*
X151137904Y-83780380D02*
X151328380Y-83780380D01*
X151423619Y-83828000D01*
X151518857Y-83923238D01*
X151566476Y-84113714D01*
X151566476Y-84447047D01*
X151518857Y-84637523D01*
X151423619Y-84732761D01*
X151328380Y-84780380D01*
X151137904Y-84780380D01*
X151042666Y-84732761D01*
X150947428Y-84637523D01*
X150899809Y-84447047D01*
X150899809Y-84113714D01*
X150947428Y-83923238D01*
X151042666Y-83828000D01*
X151137904Y-83780380D01*
X151995047Y-84780380D02*
X151995047Y-83780380D01*
X152376000Y-83780380D01*
X152471238Y-83828000D01*
X152518857Y-83875619D01*
X152566476Y-83970857D01*
X152566476Y-84113714D01*
X152518857Y-84208952D01*
X152471238Y-84256571D01*
X152376000Y-84304190D01*
X151995047Y-84304190D01*
G04 #@! TO.C,D4*
X149852285Y-91638380D02*
X149852285Y-90971714D01*
X149852285Y-91162190D02*
X149899904Y-91066952D01*
X149947523Y-91019333D01*
X150042761Y-90971714D01*
X150138000Y-90971714D01*
X150852285Y-91590761D02*
X150757047Y-91638380D01*
X150566571Y-91638380D01*
X150471333Y-91590761D01*
X150423714Y-91495523D01*
X150423714Y-91114571D01*
X150471333Y-91019333D01*
X150566571Y-90971714D01*
X150757047Y-90971714D01*
X150852285Y-91019333D01*
X150899904Y-91114571D01*
X150899904Y-91209809D01*
X150423714Y-91305047D01*
X151757047Y-91638380D02*
X151757047Y-91114571D01*
X151709428Y-91019333D01*
X151614190Y-90971714D01*
X151423714Y-90971714D01*
X151328476Y-91019333D01*
X151757047Y-91590761D02*
X151661809Y-91638380D01*
X151423714Y-91638380D01*
X151328476Y-91590761D01*
X151280857Y-91495523D01*
X151280857Y-91400285D01*
X151328476Y-91305047D01*
X151423714Y-91257428D01*
X151661809Y-91257428D01*
X151757047Y-91209809D01*
X152661809Y-91638380D02*
X152661809Y-90638380D01*
X152661809Y-91590761D02*
X152566571Y-91638380D01*
X152376095Y-91638380D01*
X152280857Y-91590761D01*
X152233238Y-91543142D01*
X152185619Y-91447904D01*
X152185619Y-91162190D01*
X152233238Y-91066952D01*
X152280857Y-91019333D01*
X152376095Y-90971714D01*
X152566571Y-90971714D01*
X152661809Y-91019333D01*
X153042761Y-90971714D02*
X153280857Y-91638380D01*
X153518952Y-90971714D02*
X153280857Y-91638380D01*
X153185619Y-91876476D01*
X153138000Y-91924095D01*
X153042761Y-91971714D01*
G04 #@! TO.C,D3*
X153440000Y-96677380D02*
X153440000Y-96010714D01*
X153440000Y-96201190D02*
X153487619Y-96105952D01*
X153535238Y-96058333D01*
X153630476Y-96010714D01*
X153725714Y-96010714D01*
X154059047Y-96677380D02*
X154059047Y-96010714D01*
X154059047Y-95677380D02*
X154011428Y-95725000D01*
X154059047Y-95772619D01*
X154106666Y-95725000D01*
X154059047Y-95677380D01*
X154059047Y-95772619D01*
X154963809Y-96010714D02*
X154963809Y-96820238D01*
X154916190Y-96915476D01*
X154868571Y-96963095D01*
X154773333Y-97010714D01*
X154630476Y-97010714D01*
X154535238Y-96963095D01*
X154963809Y-96629761D02*
X154868571Y-96677380D01*
X154678095Y-96677380D01*
X154582857Y-96629761D01*
X154535238Y-96582142D01*
X154487619Y-96486904D01*
X154487619Y-96201190D01*
X154535238Y-96105952D01*
X154582857Y-96058333D01*
X154678095Y-96010714D01*
X154868571Y-96010714D01*
X154963809Y-96058333D01*
X155440000Y-96677380D02*
X155440000Y-95677380D01*
X155868571Y-96677380D02*
X155868571Y-96153571D01*
X155820952Y-96058333D01*
X155725714Y-96010714D01*
X155582857Y-96010714D01*
X155487619Y-96058333D01*
X155440000Y-96105952D01*
X156201904Y-96010714D02*
X156582857Y-96010714D01*
X156344761Y-95677380D02*
X156344761Y-96534523D01*
X156392380Y-96629761D01*
X156487619Y-96677380D01*
X156582857Y-96677380D01*
G04 #@! TO.C,D2*
X150360095Y-96020000D02*
X150264857Y-95972380D01*
X150122000Y-95972380D01*
X149979142Y-96020000D01*
X149883904Y-96115238D01*
X149836285Y-96210476D01*
X149788666Y-96400952D01*
X149788666Y-96543809D01*
X149836285Y-96734285D01*
X149883904Y-96829523D01*
X149979142Y-96924761D01*
X150122000Y-96972380D01*
X150217238Y-96972380D01*
X150360095Y-96924761D01*
X150407714Y-96877142D01*
X150407714Y-96543809D01*
X150217238Y-96543809D01*
X151026761Y-95972380D02*
X151217238Y-95972380D01*
X151312476Y-96020000D01*
X151407714Y-96115238D01*
X151455333Y-96305714D01*
X151455333Y-96639047D01*
X151407714Y-96829523D01*
X151312476Y-96924761D01*
X151217238Y-96972380D01*
X151026761Y-96972380D01*
X150931523Y-96924761D01*
X150836285Y-96829523D01*
X150788666Y-96639047D01*
X150788666Y-96305714D01*
X150836285Y-96115238D01*
X150931523Y-96020000D01*
X151026761Y-95972380D01*
G04 #@! TO.C,D1*
X138057047Y-96652380D02*
X137961809Y-96604761D01*
X137914190Y-96509523D01*
X137914190Y-95652380D01*
X138818952Y-96604761D02*
X138723714Y-96652380D01*
X138533238Y-96652380D01*
X138438000Y-96604761D01*
X138390380Y-96509523D01*
X138390380Y-96128571D01*
X138438000Y-96033333D01*
X138533238Y-95985714D01*
X138723714Y-95985714D01*
X138818952Y-96033333D01*
X138866571Y-96128571D01*
X138866571Y-96223809D01*
X138390380Y-96319047D01*
X139152285Y-95985714D02*
X139533238Y-95985714D01*
X139295142Y-96652380D02*
X139295142Y-95795238D01*
X139342761Y-95700000D01*
X139438000Y-95652380D01*
X139533238Y-95652380D01*
X139723714Y-95985714D02*
X140104666Y-95985714D01*
X139866571Y-95652380D02*
X139866571Y-96509523D01*
X139914190Y-96604761D01*
X140009428Y-96652380D01*
X140104666Y-96652380D01*
G04 #@! TO.C,J1*
X155876666Y-105116380D02*
X155876666Y-105830666D01*
X155829047Y-105973523D01*
X155733809Y-106068761D01*
X155590952Y-106116380D01*
X155495714Y-106116380D01*
X156876666Y-106116380D02*
X156305238Y-106116380D01*
X156590952Y-106116380D02*
X156590952Y-105116380D01*
X156495714Y-105259238D01*
X156400476Y-105354476D01*
X156305238Y-105402095D01*
G04 #@! TD*
M02*
